<?xml version="1.0" standalone="no"?><!-- Generator: Gravit.io --><svg xmlns="http://www.w3.org/2000/svg" xmlns:xlink="http://www.w3.org/1999/xlink" style="isolation:isolate" viewBox="159.956 35.295 56.25 51.249" width="56.25" height="51.249"><g id="icon"><path d=" M 172.333 61.5 C 172.333 53.129 179.129 46.333 187.5 46.333 C 195.871 46.333 202.667 53.129 202.667 61.5 C 202.667 69.871 195.871 76.667 187.5 76.667 C 179.129 76.667 172.333 69.871 172.333 61.5 Z " fill="rgb(139,183,240)"/><path d=" M 187.5 47.417 C 195.265 47.417 201.583 53.735 201.583 61.5 C 201.583 69.265 195.265 75.583 187.5 75.583 C 179.735 75.583 173.417 69.265 173.417 61.5 C 173.417 53.735 179.735 47.417 187.5 47.417 Z  M 187.5 45.25 C 178.525 45.25 171.25 52.525 171.25 61.5 C 171.25 70.475 178.525 77.75 187.5 77.75 C 196.475 77.75 203.75 70.475 203.75 61.5 C 203.75 52.525 196.475 45.25 187.5 45.25 Z " fill="rgb(78,122,181)"/><path d=" M 179.956 61.545 L 184.956 66.544 L 196.206 55.295" fill="none" vector-effect="non-scaling-stroke" stroke-width="4" stroke="rgb(255,255,255)" stroke-linejoin="miter" stroke-linecap="butt" stroke-miterlimit="10"/></g></svg>